{
    "asset" : {
        "generator" : "Khronos glTF Blender I/O v1.3.48",
        "version" : "2.0"
    },
    "scene" : 0,
    "scenes" : [
        {
            "name" : "Scene",
            "nodes" : [
                0,
                1,
                2,
                3
            ]
        }
    ],
    "nodes" : [
        {
            "name" : "Light",
            "rotation" : [
                0.3139599859714508,
                -0.2727474868297577,
                0.06397665292024612,
                0.907163143157959
            ],
            "translation" : [
                -4.364932537078857,
                6.188687324523926,
                5.362229347229004
            ]
        },
        {
            "name" : "Camera",
            "rotation" : [
                0.5263497829437256,
                0.3246961832046509,
                -0.22718286514282227,
                0.7522740364074707
            ],
            "translation" : [
                23.798891067504883,
                13.798309326171875,
                23.8157901763916
            ]
        },
        {
            "mesh" : 0,
            "name" : "Icosphere.005",
            "rotation" : [
                0,
                -0.9376990795135498,
                0,
                0.3474484980106354
            ],
            "scale" : [
                1.081607699394226,
                1.326069951057434,
                1.0023685693740845
            ],
            "translation" : [
                -2.253796339035034,
                -1.74546480178833,
                -0.053559303283691406
            ]
        },
        {
            "mesh" : 1,
            "name" : "Sphere",
            "rotation" : [
                0,
                -0.9376990795135498,
                0,
                0.3474484980106354
            ],
            "scale" : [
                0.27403903007507324,
                0.27403903007507324,
                0.27403903007507324
            ],
            "translation" : [
                -0.3199641704559326,
                4.0614728927612305,
                2.5560250282287598
            ]
        }
    ],
    "materials" : [
        {
            "doubleSided" : true,
            "emissiveFactor" : [
                0,
                0,
                0
            ],
            "name" : "Material.001",
            "pbrMetallicRoughness" : {
                "metallicFactor" : 0,
                "roughnessFactor" : 0.5
            }
        }
    ],
    "meshes" : [
        {
            "name" : "Icosphere.007",
            "primitives" : [
                {
                    "attributes" : {
                        "POSITION" : 0,
                        "NORMAL" : 1,
                        "TEXCOORD_0" : 2,
                        "COLOR_0" : 3,
                        "COLOR_1" : 4
                    },
                    "indices" : 5,
                    "material" : 0
                }
            ]
        },
        {
            "name" : "Sphere",
            "primitives" : [
                {
                    "attributes" : {
                        "POSITION" : 6,
                        "NORMAL" : 7,
                        "TEXCOORD_0" : 8
                    },
                    "indices" : 9
                }
            ]
        }
    ],
    "accessors" : [
        {
            "bufferView" : 0,
            "componentType" : 5126,
            "count" : 4843,
            "max" : [
                4.498498439788818,
                6.172344207763672,
                3.4995641708374023
            ],
            "min" : [
                -4.002242565155029,
                -2.195065498352051,
                -3.95609974861145
            ],
            "type" : "VEC3"
        },
        {
            "bufferView" : 1,
            "componentType" : 5126,
            "count" : 4843,
            "type" : "VEC3"
        },
        {
            "bufferView" : 2,
            "componentType" : 5126,
            "count" : 4843,
            "type" : "VEC2"
        },
        {
            "bufferView" : 3,
            "componentType" : 5126,
            "count" : 4843,
            "type" : "VEC4"
        },
        {
            "bufferView" : 4,
            "componentType" : 5126,
            "count" : 4843,
            "type" : "VEC4"
        },
        {
            "bufferView" : 5,
            "componentType" : 5123,
            "count" : 28806,
            "type" : "SCALAR"
        },
        {
            "bufferView" : 6,
            "componentType" : 5126,
            "count" : 1984,
            "max" : [
                -0.45388150215148926,
                0.8795939683914185,
                2.6276767253875732
            ],
            "min" : [
                -3.4040255546569824,
                -1.1204060316085815,
                0.627676248550415
            ],
            "type" : "VEC3"
        },
        {
            "bufferView" : 7,
            "componentType" : 5126,
            "count" : 1984,
            "type" : "VEC3"
        },
        {
            "bufferView" : 8,
            "componentType" : 5126,
            "count" : 1984,
            "type" : "VEC2"
        },
        {
            "bufferView" : 9,
            "componentType" : 5123,
            "count" : 2880,
            "type" : "SCALAR"
        }
    ],
    "bufferViews" : [
        {
            "buffer" : 0,
            "byteLength" : 58116,
            "byteOffset" : 0
        },
        {
            "buffer" : 0,
            "byteLength" : 58116,
            "byteOffset" : 58116
        },
        {
            "buffer" : 0,
            "byteLength" : 38744,
            "byteOffset" : 116232
        },
        {
            "buffer" : 0,
            "byteLength" : 77488,
            "byteOffset" : 154976
        },
        {
            "buffer" : 0,
            "byteLength" : 77488,
            "byteOffset" : 232464
        },
        {
            "buffer" : 0,
            "byteLength" : 57612,
            "byteOffset" : 309952
        },
        {
            "buffer" : 0,
            "byteLength" : 23808,
            "byteOffset" : 367564
        },
        {
            "buffer" : 0,
            "byteLength" : 23808,
            "byteOffset" : 391372
        },
        {
            "buffer" : 0,
            "byteLength" : 15872,
            "byteOffset" : 415180
        },
        {
            "buffer" : 0,
            "byteLength" : 5760,
            "byteOffset" : 431052
        }
    ],
    "buffers" : [
        {
            "byteLength" : 436812,
            "uri" : "data:application/octet-stream;base64,"
        }
    ]
}
